<svg width="188" height="47" viewBox="0 0 188 47" fill="none" xmlns="http://www.w3.org/2000/svg">
<path fill-rule="evenodd" clip-rule="evenodd" d="M25.305 46.4221C10.636 46.4221 0.834961 36.0221 0.834961 23.4221C0.834961 10.8221 10.661 0.300067 25.284 0.334067H163.473C178.1 0.300067 187.922 10.8151 187.922 23.4201C187.922 36.0251 178.122 46.4201 163.449 46.4201L25.305 46.4221Z" fill="#CC2131"/>
<path fill-rule="evenodd" clip-rule="evenodd" d="M25.3509 6C13.7379 6.02 6.60791 13.783 6.60791 23.384C6.60791 32.985 13.6919 40.808 25.3509 40.765H163.4C175.058 40.808 182.146 32.984 182.146 23.384C182.146 13.784 175.018 6.026 163.4 6.005H25.3509V6Z" fill="white"/>
<path fill-rule="evenodd" clip-rule="evenodd" d="M19.4001 12.4908H26.1561L35.5111 27.6188L35.5001 12.4908H42.2051V34.1908H35.5051L26.1051 19.0618V34.1908H19.3931L19.4001 12.4908ZM78.6781 14.7248H85.2001V17.6438H88.7331V19.7868H85.2001V34.1868H78.6741V19.7868H75.1311V17.6458H78.6791L78.6781 14.7248ZM45.9431 19.7608H52.4681V34.1888H45.9431V19.7608ZM45.9291 12.4868H52.4681V16.9228H45.9291V12.4868ZM162.9 26.8588C162.9 26.8588 162.9 29.0368 162.9 29.9138C162.9 32.2138 161.543 33.1638 160.232 33.1638C158.921 33.1638 157.56 32.2128 157.56 29.9138C157.56 29.0368 157.56 26.8048 157.56 26.8048C157.56 26.8048 157.566 24.6718 157.566 23.7948C157.566 21.5048 158.927 20.5628 160.228 20.5628C161.529 20.5628 162.896 21.5048 162.896 23.7948C162.896 24.6718 162.896 26.2868 162.896 26.8688V26.8588H162.9ZM160.279 18.7748C155.015 18.7748 150.748 22.4028 150.748 26.8748C150.748 31.3468 155.016 34.9748 160.279 34.9748C165.542 34.9748 169.816 31.3478 169.816 26.8748C169.816 22.4018 165.549 18.7748 160.279 18.7748ZM142.179 12.4908H148.618V34.1848H142.17V33.3548C141.064 34.0671 139.796 34.4899 138.483 34.5845C137.171 34.679 135.855 34.4422 134.658 33.8958C133.299 33.2667 132.154 32.2551 131.361 30.9848C130.568 29.7146 130.163 28.2408 130.195 26.7438C130.232 25.6991 130.477 24.6723 130.916 23.7237C131.355 22.775 131.98 21.9237 132.752 21.2197C133.525 20.5157 134.431 19.9732 135.416 19.6241C136.401 19.275 137.446 19.1263 138.49 19.1868C139.802 19.3316 141.065 19.7716 142.183 20.4738L142.179 12.4908ZM142.226 26.9018V24.3238C142.257 23.9689 142.215 23.6113 142.1 23.2738C141.986 22.9363 141.803 22.6263 141.562 22.3635C141.322 22.1006 141.029 21.8907 140.703 21.7472C140.377 21.6036 140.024 21.5294 139.668 21.5294C139.312 21.5294 138.959 21.6036 138.633 21.7472C138.307 21.8907 138.014 22.1006 137.774 22.3635C137.533 22.6263 137.35 22.9363 137.236 23.2738C137.121 23.6113 137.079 23.9689 137.11 24.3238C137.11 25.0598 137.11 26.8958 137.11 26.8958C137.11 26.8958 137.11 28.6908 137.11 29.4598C137.077 29.8157 137.119 30.1745 137.232 30.5134C137.346 30.8523 137.529 31.1637 137.769 31.4279C138.01 31.692 138.303 31.903 138.63 32.0474C138.957 32.1917 139.311 32.2663 139.668 32.2663C140.025 32.2663 140.379 32.1917 140.706 32.0474C141.033 31.903 141.326 31.692 141.567 31.4279C141.807 31.1637 141.99 30.8523 142.104 30.5134C142.218 30.1745 142.259 29.8157 142.226 29.4598V26.9018ZM67.7411 19.0938C70.1791 19.0268 75.1311 20.6238 75.0951 26.3378C75.0881 27.3498 75.0951 34.1858 75.0951 34.1858H68.6111V24.7108C68.5525 23.9693 68.2101 23.2791 67.6551 22.7839C67.1001 22.2887 66.3754 22.0268 65.6321 22.0528C64.8756 22.0241 64.1362 22.2819 63.5615 22.7746C62.9868 23.2674 62.6192 23.9588 62.5321 24.7108L62.5391 34.1858H56.0611L56.0561 19.7588H62.5391C62.5391 19.7588 62.5321 20.9208 62.5391 21.2748C63.9444 19.9325 65.7966 19.1574 67.7391 19.0988L67.7411 19.0938ZM120.768 19.0938C123.202 19.0268 128.153 20.6238 128.122 26.3378C128.112 27.3498 128.116 34.1858 128.116 34.1858H121.634V24.7108C121.576 23.9692 121.234 23.2786 120.679 22.7833C120.123 22.288 119.399 22.0263 118.655 22.0528C117.899 22.0251 117.16 22.2832 116.585 22.7757C116.011 23.2683 115.643 23.9592 115.555 24.7108L115.565 34.1858H109.088V19.7588H115.561C115.561 19.7588 115.551 20.9208 115.561 21.2748C116.967 19.9311 118.822 19.1559 120.766 19.0988L120.768 19.0938ZM94.8161 24.7888C94.7047 23.8236 94.8524 22.846 95.2441 21.9568C95.4804 21.5569 95.8167 21.2254 96.22 20.9948C96.6232 20.7643 97.0796 20.6426 97.5441 20.6418C98.0081 20.6417 98.4641 20.763 98.8667 20.9937C99.2693 21.2244 99.6045 21.5564 99.8391 21.9568C100.23 22.8463 100.378 23.8236 100.267 24.7888H94.8161ZM100.234 29.1408C100.234 29.1408 100.24 29.2048 100.24 30.0178C100.24 32.6568 98.5041 33.2448 97.5401 33.2448C96.5761 33.2448 94.8081 32.6568 94.8081 30.0178C94.8081 29.2248 94.8181 27.0378 94.8181 27.0378H107.105C107.105 22.5618 102.787 18.8548 97.4801 18.8548C92.1731 18.8548 87.8731 22.4828 87.8731 26.9548C87.8731 31.4268 92.1731 35.0548 97.4801 35.0548C101.88 35.0548 105.599 32.5408 106.738 29.1308L100.231 29.1368L100.234 29.1408ZM170.268 17.6538H169.516V12.7128H171.4C172.564 12.7128 173.144 13.1438 173.144 14.1128C173.154 14.2876 173.128 14.4625 173.068 14.627C173.008 14.7914 172.915 14.9419 172.795 15.0693C172.675 15.1967 172.53 15.2983 172.37 15.3678C172.209 15.4373 172.036 15.4734 171.861 15.4738L173.261 17.6498H172.425L171.125 15.5068H170.268V17.6498V17.6538ZM171.162 14.8758C171.797 14.8758 172.362 14.8318 172.362 14.0758C172.362 13.4648 171.807 13.3498 171.29 13.3498H170.27V14.8798L171.162 14.8758Z" fill="#CC2131"/>
</svg>
